<?xml version="1.0" ?><svg data-name="Layer 1" id="Layer_1" viewBox="0 0 64 64" xmlns="http://www.w3.org/2000/svg"><defs><style>.cls-1{fill:#4fbe9f;}.cls-2{fill:#dcdfe2;}.cls-3{fill:#09816c;}.cls-4{fill:#cad0d8;}</style></defs><title/><path class="cls-1" d="M22.62,48.62l0-.18h0l2-11.95A2.43,2.43,0,0,1,27,34.74h4.84A16.36,16.36,0,0,0,48.07,20.4a17.45,17.45,0,0,0,.12-2.3A10.35,10.35,0,0,0,37.81,8H23.2a5.48,5.48,0,0,0-5.41,4.58L12.15,46.09a3.77,3.77,0,0,0,3.72,4.4H20.4A2.25,2.25,0,0,0,22.62,48.62Z"/><path class="cls-2" d="M48.07,20.4A16.36,16.36,0,0,1,31.84,34.74H27a2.43,2.43,0,0,0-2.34,1.75L22,52.49a3,3,0,0,0,3,3.51h3.45a3,3,0,0,0,3-2.51L32.79,45a3.35,3.35,0,0,1,3.31-2.8h1.46A14.34,14.34,0,0,0,51.9,27.83a9.09,9.09,0,0,0-3.83-7.43Zm0,0"/><path class="cls-3" d="M27,34.74h4.84A16.36,16.36,0,0,0,48.07,20.4a9.07,9.07,0,0,0-5.28-1.68H30.15a3,3,0,0,0-2.91,2.45L24.66,36.49A2.43,2.43,0,0,1,27,34.74Zm0,0"/><path class="cls-4" d="M50.22,22.56a9.19,9.19,0,0,0-2.15-2.16A16.36,16.36,0,0,1,31.84,34.74H27a2.43,2.43,0,0,0-2.34,1.75L22,52.49c0,.08,0,.15,0,.23A4.73,4.73,0,0,0,25.09,49l2-11.8h4.77A18.87,18.87,0,0,0,50.22,22.56Z"/></svg>