<?xml version="1.0" ?><svg id="Layer_1" style="enable-background:new 0 0 256 256;" version="1.1" viewBox="0 0 256 256" xml:space="preserve" xmlns="http://www.w3.org/2000/svg" xmlns:xlink="http://www.w3.org/1999/xlink"><g><path d="M30.3,117.3c4.9,5.2,11.1,9.2,17.8,11.6c2.3,0.8,4.7,1.5,7.2,1.9c2.4,0.5,4.9,0.7,7.4,0.8c0.4,0,0.8,0,1.2,0   c6.7,0,13.5-1.5,19.6-4.3c4.6-2.1,8.8-5,12.4-8.5c5.2-5,9.3-11.1,11.7-17.9c0.9-2.4,1.5-4.8,2-7.3c0.5-2.5,0.7-5.1,0.8-7.6   c0.2-7.1-1.4-14.3-4.4-20.8c-2.2-4.6-5.1-8.8-8.6-12.5c-4.9-5.1-11.1-9.1-17.8-11.5c-2.3-0.8-4.7-1.5-7.2-1.9   c-2.5-0.5-4.9-0.7-7.4-0.8c-7.1-0.2-14.3,1.3-20.8,4.3c-4.6,2.2-8.8,5-12.5,8.5c-5.2,4.9-9.2,11.1-11.6,17.8   c-0.9,2.4-1.5,4.8-2,7.3c-0.5,2.5-0.7,5-0.8,7.5c-0.2,7.2,1.4,14.4,4.5,20.9C24,109.5,26.8,113.7,30.3,117.3z M28.1,78.4   c0.4-2,0.9-3.9,1.6-5.8c1.9-5.2,5-10,9.1-13.9c2.9-2.8,6.2-5,9.8-6.7c4.8-2.2,10.1-3.4,15.3-3.4c0.3,0,0.6,0,0.9,0   c1.9,0,3.9,0.3,5.8,0.6c1.9,0.4,3.8,0.9,5.6,1.5c5.2,1.9,10.1,5,13.9,9c2.8,2.9,5,6.2,6.7,9.8c2.4,5,3.6,10.7,3.4,16.2   c0,2-0.3,4-0.6,5.9c0,0,0,0,0,0c-0.4,2-0.9,3.9-1.6,5.7c-1.9,5.3-5.1,10.1-9.2,14c-2.9,2.7-6.1,5-9.7,6.6   c-5.1,2.4-10.8,3.5-16.3,3.4c-1.9,0-3.9-0.3-5.8-0.6c-1.9-0.4-3.8-0.9-5.6-1.5c-5.3-1.9-10.1-5-13.9-9c-2.7-2.9-5-6.1-6.7-9.7   c-2.4-5.1-3.6-10.7-3.5-16.3C27.5,82.3,27.7,80.3,28.1,78.4z"/><path d="M56.8,91.9c1,1.1,2.3,1.9,3.7,2.4c0.5,0.2,1,0.3,1.5,0.4c0.5,0.1,1,0.2,1.6,0.2c1.5,0,3-0.3,4.4-0.9c1-0.4,1.8-1,2.6-1.8   c1.1-1,1.9-2.3,2.5-3.8c0.2-0.5,0.3-1,0.4-1.5c0.1-0.5,0.2-1.1,0.2-1.6c0-0.7-0.1-1.4-0.2-2l9.9-8.9c2.1-1.9,2.2-5.1,0.4-7.2   c-1.9-2.1-5.1-2.2-7.2-0.4l-9.9,8.9c-0.3-0.1-0.7-0.2-1-0.3c-0.5-0.1-1-0.2-1.6-0.2c-1.5,0-3,0.3-4.4,0.9c-1,0.5-1.9,1.1-2.6,1.8   c-1.1,1-1.9,2.3-2.4,3.7c-0.2,0.5-0.3,1-0.4,1.5c-0.1,0.5-0.2,1.1-0.2,1.6c0,1.6,0.3,3.1,0.9,4.4C55.5,90.2,56.1,91.1,56.8,91.9z"/><path d="M236.8,127.4h-22l-20.2-46.2c-1.5-3.4-4.9-5.6-8.6-5.6h-56.5c-2.8,0-5.1,2.3-5.1,5.1v64.1H8.4c-2.8,0-5.1,2.3-5.1,5.1v38.9   c0,5.2,4.2,9.4,9.4,9.4h14.6c2.8,0,5.1-2.3,5.1-5.1c0-2.8-2.3-5.1-5.1-5.1H13.5v-33.1h116c2.8,0,5.1-2.3,5.1-5.1V85.6h50.9   l18.7,42.8l2.7,6c0.8,1.8,2.6,3,4.6,3h25.3c3.2,0,5.7,2.6,5.7,5.7v44.7h-13.8c-2.8,0-5.1,2.3-5.1,5.1c0,2.8,2.3,5.1,5.1,5.1h14.5   c5.2,0,9.4-4.2,9.4-9.4v-45.4C252.7,134.5,245.5,127.4,236.8,127.4z"/><path d="M162.7,187.9H93.3c-2.8,0-5.1,2.3-5.1,5.1c0,2.8,2.3,5.1,5.1,5.1h69.3c2.8,0,5.1-2.3,5.1-5.1   C167.7,190.2,165.5,187.9,162.7,187.9z"/><path d="M79.3,190.5c-1.4-4-4.1-7.5-7.7-9.9c-0.1-0.1-0.3-0.2-0.4-0.3l-2.7-1.4c-0.2-0.1-0.4-0.2-0.5-0.2c-0.3-0.1-0.6-0.2-1.2-0.4   l-1.9-0.6c-0.5-0.1-1-0.2-1.4-0.3c-0.5-0.1-1.1-0.1-1.8-0.2l-1.6,0l-1.4,0.1c-0.5,0-1,0.1-1.5,0.2c-0.5,0.1-0.9,0.2-1.4,0.3   c-0.1,0-0.1,0-0.2,0l-1.3,0.3c-0.4,0.1-0.8,0.3-1.4,0.5l-1.3,0.6c-4.8,2.3-8.6,6.5-10.4,11.4c0,0.1-0.2,0.5-0.2,0.6   c-0.7,2-1,4.1-1,6.2c0,11.1,9,20.2,20.2,20.2c11.1,0,20.2-9,20.2-20.2c0-2.1-0.3-4.1-1-6.3L79.3,190.5z M60.3,207.4   c-5.5,0-10-4.5-10-10c0-1,0.2-2.1,0.4-2.8c0,0,0.2-0.5,0.2-0.5c0.9-2.5,2.8-4.6,5-5.7l2.3-0.8c0.2,0,0.3-0.1,0.6-0.1   c0.3,0,0.5-0.1,0.5-0.1l0.8,0l0.9,0c0.3,0,0.5,0.1,0.9,0.1c0.2,0,0.4,0.1,0.4,0.1l1.4,0.4l2.4,1.3c1.7,1.2,3,2.9,3.7,4.9l0.1,0.3   c0.3,0.9,0.5,2,0.5,3C70.3,202.9,65.8,207.4,60.3,207.4z"/><path d="M214.7,190.6c-1.5-4.1-4.1-7.6-7.7-10c-0.2-0.1-0.4-0.2-0.5-0.3l-3.4-1.7c-0.3-0.1-0.6-0.3-0.9-0.3l-1.9-0.5   c-0.5-0.1-1-0.2-1.4-0.3c-0.5-0.1-1-0.1-1.9-0.2l-2.1,0c-0.2,0-0.3,0-0.5,0c-0.8,0.1-1.3,0.1-1.7,0.2c-0.5,0.1-0.9,0.2-1.4,0.3   c-0.1,0-0.1,0-0.2,0l-1.3,0.3c-0.4,0.1-0.7,0.2-1.3,0.5l-1.3,0.6c-4.8,2.3-8.7,6.5-10.4,11.4c0,0.1-0.2,0.6-0.2,0.6   c-0.7,2-1,4.1-1,6.2c0,11.1,9,20.2,20.2,20.2c11.1,0,20.2-9,20.2-20.2c0-2.1-0.3-4.2-1.1-6.4L214.7,190.6z M195.7,207.4   c-5.5,0-10-4.5-10-10c0-1.1,0.2-2.1,0.4-2.8c0-0.1,0.2-0.5,0.2-0.5c0.9-2.5,2.8-4.6,5-5.7l2.3-0.8c0.2,0,0.4-0.1,0.6-0.1   c0.2,0,0.5-0.1,0.8-0.1h1.5c0.3,0,0.6,0.1,0.8,0.1c0.2,0,0.4,0.1,0.4,0.1l1.2,0.3l2.6,1.3c1.7,1.2,2.9,2.9,3.7,5l0.1,0.1   c0.3,1,0.5,2,0.5,3C205.7,202.9,201.2,207.4,195.7,207.4z"/></g></svg>