<?xml version="1.0" ?><!DOCTYPE svg  PUBLIC '-//W3C//DTD SVG 1.1//EN'  'http://www.w3.org/Graphics/SVG/1.1/DTD/svg11.dtd'><svg height="8.4666mm" style="shape-rendering:geometricPrecision; text-rendering:geometricPrecision; image-rendering:optimizeQuality; fill-rule:evenodd; clip-rule:evenodd" version="1.1" viewBox="0 0 846.66 846.66" width="8.4666mm" xml:space="preserve" xmlns="http://www.w3.org/2000/svg" xmlns:xlink="http://www.w3.org/1999/xlink"><defs><style type="text/css">
   <![CDATA[
    .fil0 {fill:black;fill-rule:nonzero}
   ]]>
  </style></defs><g id="Layer_x0020_1"><path class="fil0" d="M141.9 265.46l123.67 0 157.63 -244.98c6.14,-9.57 18.88,-12.35 28.45,-6.2l225.21 144.9c9.57,6.15 12.34,18.89 6.2,28.46l-50.07 77.82 71.78 0c54.16,0 98.39,44.23 98.39,98.39l0 373.41c0,54.16 -44.23,98.39 -98.39,98.39l-562.87 0c-54.17,0 -98.4,-44.23 -98.4,-98.39l0 -373.41c0,-54.16 44.23,-98.39 98.4,-98.39zm172.64 0l269.48 0 53.25 -82.77 -190.57 -122.63 -132.16 205.4zm-151.64 300.66c-27.14,0 -27.14,-41.26 0,-41.26l270.96 0c27.14,0 27.14,41.26 0,41.26l-270.96 0zm0 -67.74c-27.14,0 -27.14,-41.26 0,-41.26l270.96 0c27.14,0 27.14,41.26 0,41.26l-270.96 0zm-78.13 -109l677.12 0 0 -25.53c0,-31.38 -25.75,-57.12 -57.12,-57.12 -187.63,0 -375.25,0 -562.87,0 -31.38,0 -57.13,25.74 -57.13,57.12l0 25.53zm677.12 41.27l-677.12 0 0 306.61c0,31.37 25.75,57.12 57.13,57.12l562.87 0c31.37,0 57.12,-25.75 57.12,-57.12l0 -306.61z"/></g></svg>