<?xml version="1.0" encoding="iso-8859-1"?>
<!-- Uploaded to: SVG Repo, www.svgrepo.com, Generator: SVG Repo Mixer Tools -->
<svg version="1.1" id="Layer_1" xmlns="http://www.w3.org/2000/svg" xmlns:xlink="http://www.w3.org/1999/xlink" viewBox="0 0 512 512" xml:space="preserve" width="20" height="20">
<path style="fill:#F63341;" d="M511.446,272.659C511.8,267.15,512,261.599,512,256C512,114.616,397.385,0,256,0S0,114.616,0,256
	c0,133.575,102.308,243.236,232.835,254.946L511.446,272.659z"/>
<path style="fill:#C92B31;" d="M511.446,272.659l-238.75-238.75l-81.355,207.839l-91.167,16.696l-22.261,22.261l70.134,70.134
	l30.04,105.36l54.747,54.748C240.467,511.63,248.19,512,256,512C391.786,512,502.861,406.276,511.446,272.659z"/>
<rect x="256" y="241.753" style="fill:#B1EAE5;" width="166.957" height="22.261"/>
<g>
	<rect x="89.043" y="241.753" style="fill:#FFFFFF;" width="166.957" height="22.261"/>
	<rect x="239.304" y="33.909" style="fill:#FFFFFF;" width="33.391" height="63.443"/>
</g>
<rect x="172.428" y="119.789" transform="matrix(-0.9287 -0.3708 0.3708 -0.9287 290.4369 514.6263)" style="fill:#D8F4F2;" width="44.521" height="219.211"/>
<rect x="295.072" y="119.794" transform="matrix(0.9287 -0.3708 0.3708 0.9287 -62.4403 134.0219)" style="fill:#7DDCD4;" width="44.521" height="219.211"/>
<polygon style="fill:#D8F4F2;" points="333.913,456.198 356.174,456.198 356.174,389.415 333.913,411.676 "/>
<rect x="333.913" y="322.638" style="fill:#7DDCD4;" width="44.522" height="89.043"/>
<path style="fill:#40D2BE;" d="M356.174,289.241l11.13,33.391l-11.13,33.391c-18.412,0-33.391-14.979-33.391-33.391
	S337.762,289.241,356.174,289.241z"/>
<g>
	<path style="fill:#02AF92;" d="M389.565,322.632c0,18.412-14.979,33.391-33.391,33.391v-66.783
		C374.586,289.241,389.565,304.22,389.565,322.632z"/>
	<path style="fill:#02AF92;" d="M256,80.217l-18.551,55.652L256,191.521c30.687,0,55.652-24.966,55.652-55.652
		S286.687,80.217,256,80.217z"/>
</g>
<path style="fill:#40D2BE;" d="M200.348,135.869c0,30.687,24.966,55.652,55.652,55.652V80.217
	C225.313,80.217,200.348,105.183,200.348,135.869z"/>
<path style="fill:#C92B31;" d="M256,102.478c-18.412,0-33.391,14.979-33.391,33.391s14.979,33.391,33.391,33.391
	s33.391-14.979,33.391-33.391S274.412,102.478,256,102.478z"/>
<g>
	<rect x="244.87" y="225.057" style="fill:#40D2BE;" width="22.261" height="55.652"/>
	<rect x="411.826" y="225.057" style="fill:#40D2BE;" width="22.261" height="55.652"/>
</g>
<rect x="77.913" y="225.057" style="fill:#B1EAE5;" width="22.261" height="55.652"/>
<polygon style="fill:#FFFFFF;" points="178.087,456.198 155.826,456.198 155.826,389.415 178.087,411.676 "/>
<rect x="133.565" y="322.638" style="fill:#D8F4F2;" width="44.522" height="89.043"/>
<path style="fill:#7DDCD4;" d="M155.826,289.241l-11.13,33.391l11.13,33.391c18.412,0,33.391-14.979,33.391-33.391
	S174.238,289.241,155.826,289.241z"/>
<path style="fill:#B1EAE5;" d="M122.435,322.632c0,18.412,14.979,33.391,33.391,33.391v-66.783
	C137.414,289.241,122.435,304.22,122.435,322.632z"/>
<circle style="fill:#02AF92;" cx="155.826" cy="322.638" r="11.13"/>
<circle style="fill:#0E7563;" cx="356.174" cy="322.638" r="11.13"/>
</svg>
