<svg xmlns="http://www.w3.org/2000/svg" xmlns:xlink="http://www.w3.org/1999/xlink" width="100" zoomAndPan="magnify" viewBox="0 0 75 74.999997" height="100" preserveAspectRatio="xMidYMid meet" version="1.0"><defs><g/><clipPath id="fd9231114f"><path d="M 23.792969 23.792969 L 51.207031 23.792969 L 51.207031 51.207031 L 23.792969 51.207031 Z M 23.792969 23.792969 " clip-rule="nonzero"/></clipPath><clipPath id="a5ff8b3a25"><path d="M 37.5 23.792969 C 29.929688 23.792969 23.792969 29.929688 23.792969 37.5 C 23.792969 45.070312 29.929688 51.207031 37.5 51.207031 C 45.070312 51.207031 51.207031 45.070312 51.207031 37.5 C 51.207031 29.929688 45.070312 23.792969 37.5 23.792969 Z M 37.5 23.792969 " clip-rule="nonzero"/></clipPath></defs><g clip-path="url(#fd9231114f)"><g clip-path="url(#a5ff8b3a25)"><path fill="#000000" d="M 23.792969 23.792969 L 51.207031 23.792969 L 51.207031 51.207031 L 23.792969 51.207031 Z M 23.792969 23.792969 " fill-opacity="1" fill-rule="nonzero"/></g></g><g fill="#edaec0" fill-opacity="1"><g transform="translate(28.274999, 45.749995)"><g><path d="M 2.703125 1.453125 C 1.765625 1.453125 1.023438 1.09375 0.484375 0.375 C -0.304688 -0.632812 -0.566406 -1.785156 -0.296875 -3.078125 C -0.203125 -3.453125 -0.0507812 -3.773438 0.15625 -4.046875 C 0.351562 -4.367188 0.585938 -4.648438 0.859375 -4.890625 C 0.859375 -5.535156 0.863281 -6.226562 0.875 -6.96875 C 0.882812 -7.71875 0.898438 -8.472656 0.921875 -9.234375 C 0.929688 -9.628906 0.941406 -10.070312 0.953125 -10.5625 C 0.960938 -11.0625 0.972656 -11.550781 0.984375 -12.03125 C 0.992188 -12.507812 1 -12.898438 1 -13.203125 C 1 -13.296875 1 -13.382812 1 -13.46875 C 1 -13.5625 1 -13.644531 1 -13.71875 C 1 -13.800781 1 -13.882812 1 -13.96875 C 1 -14.050781 1.007812 -14.140625 1.03125 -14.234375 C 1.03125 -14.367188 1.046875 -14.535156 1.078125 -14.734375 C 1.117188 -14.929688 1.238281 -15.03125 1.4375 -15.03125 C 1.738281 -14.976562 1.90625 -14.800781 1.9375 -14.5 C 1.957031 -14.445312 1.96875 -14.335938 1.96875 -14.171875 C 1.988281 -13.898438 2.003906 -13.628906 2.015625 -13.359375 C 2.023438 -13.085938 2.035156 -12.820312 2.046875 -12.5625 C 2.066406 -12.269531 2.082031 -11.988281 2.09375 -11.71875 C 2.101562 -11.445312 2.097656 -11.164062 2.078125 -10.875 C 2.078125 -10.789062 2.085938 -10.726562 2.109375 -10.6875 C 2.109375 -10.675781 2.109375 -10.648438 2.109375 -10.609375 C 2.109375 -10.578125 2.109375 -10.539062 2.109375 -10.5 C 2.109375 -10.445312 2.132812 -10.421875 2.1875 -10.421875 C 2.238281 -10.421875 2.265625 -10.445312 2.265625 -10.5 L 2.4375 -10.859375 C 2.757812 -11.773438 3.085938 -12.628906 3.421875 -13.421875 C 3.765625 -14.210938 4.207031 -15.019531 4.75 -15.84375 C 4.84375 -15.96875 4.9375 -16.085938 5.03125 -16.203125 C 5.132812 -16.328125 5.238281 -16.453125 5.34375 -16.578125 C 5.507812 -16.742188 5.628906 -16.832031 5.703125 -16.84375 C 5.953125 -16.988281 6.175781 -17.0625 6.375 -17.0625 C 6.625 -17.0625 6.875 -16.972656 7.125 -16.796875 C 7.289062 -16.648438 7.390625 -16.46875 7.421875 -16.25 C 7.441406 -16.019531 7.425781 -15.722656 7.375 -15.359375 C 7.15625 -14.367188 6.773438 -13.359375 6.234375 -12.328125 C 5.691406 -11.304688 5.085938 -10.421875 4.421875 -9.671875 L 4.21875 -9.421875 C 4.101562 -9.296875 4.144531 -9.1875 4.34375 -9.09375 L 4.453125 -9.078125 C 4.828125 -8.984375 5.160156 -8.816406 5.453125 -8.578125 C 5.742188 -8.347656 5.992188 -8.082031 6.203125 -7.78125 L 6.296875 -7.6875 C 6.453125 -7.75 6.609375 -7.804688 6.765625 -7.859375 C 6.929688 -7.910156 7.097656 -7.953125 7.265625 -7.984375 C 7.421875 -8.023438 7.578125 -8.066406 7.734375 -8.109375 C 7.898438 -8.160156 8.054688 -8.203125 8.203125 -8.234375 C 8.296875 -8.253906 8.390625 -8.269531 8.484375 -8.28125 C 8.585938 -8.300781 8.6875 -8.3125 8.78125 -8.3125 C 8.90625 -8.3125 8.984375 -8.300781 9.015625 -8.28125 C 9.015625 -8.28125 9.070312 -8.265625 9.1875 -8.234375 C 9.21875 -8.210938 9.226562 -8.179688 9.21875 -8.140625 C 9.207031 -8.097656 9.195312 -8.066406 9.1875 -8.046875 L 9.015625 -7.96875 L 6.796875 -7.390625 C 6.734375 -7.378906 6.675781 -7.367188 6.625 -7.359375 C 6.582031 -7.347656 6.539062 -7.34375 6.5 -7.34375 L 6.828125 -6.59375 C 7.171875 -5.613281 7.289062 -4.613281 7.1875 -3.59375 C 7.1875 -3.351562 7.148438 -3.097656 7.078125 -2.828125 C 6.878906 -2.035156 6.597656 -1.316406 6.234375 -0.671875 C 5.878906 -0.0234375 5.414062 0.488281 4.84375 0.875 C 4.28125 1.257812 3.566406 1.453125 2.703125 1.453125 Z M 2.859375 1.078125 C 3.234375 1.023438 3.570312 0.910156 3.875 0.734375 C 4.1875 0.566406 4.453125 0.320312 4.671875 0 C 4.972656 -0.46875 5.222656 -0.957031 5.421875 -1.46875 C 5.617188 -1.976562 5.773438 -2.503906 5.890625 -3.046875 C 5.941406 -3.265625 5.984375 -3.488281 6.015625 -3.71875 C 6.054688 -3.957031 6.066406 -4.226562 6.046875 -4.53125 C 6.023438 -4.601562 6.015625 -4.679688 6.015625 -4.765625 C 6.015625 -4.859375 6.007812 -4.972656 6 -5.109375 C 5.976562 -5.210938 5.960938 -5.320312 5.953125 -5.4375 C 5.941406 -5.550781 5.925781 -5.675781 5.90625 -5.8125 C 5.851562 -6.257812 5.75 -6.695312 5.59375 -7.125 C 5.15625 -6.976562 4.609375 -6.753906 3.953125 -6.453125 C 3.296875 -6.160156 2.671875 -5.773438 2.078125 -5.296875 L 2.078125 -4.421875 L 1.9375 -3.078125 C 1.882812 -2.753906 1.679688 -2.59375 1.328125 -2.59375 C 1.265625 -2.59375 1.226562 -2.601562 1.21875 -2.625 C 1.195312 -2.625 1.171875 -2.625 1.140625 -2.625 C 1.117188 -2.625 1.097656 -2.625 1.078125 -2.625 C 0.953125 -2.65625 0.878906 -2.722656 0.859375 -2.828125 C 0.859375 -2.867188 0.859375 -2.910156 0.859375 -2.953125 C 0.859375 -3.003906 0.859375 -3.046875 0.859375 -3.078125 C 0.859375 -3.171875 0.851562 -3.242188 0.84375 -3.296875 L 0.84375 -3.921875 C 0.601562 -3.578125 0.429688 -3.148438 0.328125 -2.640625 C 0.210938 -1.648438 0.472656 -0.734375 1.109375 0.109375 C 1.328125 0.359375 1.582031 0.582031 1.875 0.78125 C 2.175781 0.976562 2.503906 1.078125 2.859375 1.078125 Z M 2.078125 -5.828125 C 2.578125 -6.140625 3.113281 -6.425781 3.6875 -6.6875 C 4.269531 -6.957031 4.859375 -7.191406 5.453125 -7.390625 C 5.429688 -7.429688 5.410156 -7.46875 5.390625 -7.5 C 5.378906 -7.539062 5.363281 -7.578125 5.34375 -7.609375 C 5.195312 -7.898438 5.019531 -8.160156 4.8125 -8.390625 C 4.613281 -8.628906 4.332031 -8.75 3.96875 -8.75 C 3.9375 -8.726562 3.890625 -8.71875 3.828125 -8.71875 C 3.773438 -8.71875 3.734375 -8.71875 3.703125 -8.71875 C 3.554688 -8.6875 3.457031 -8.660156 3.40625 -8.640625 C 3.332031 -8.609375 3.238281 -8.59375 3.125 -8.59375 C 3.019531 -8.59375 2.953125 -8.597656 2.921875 -8.609375 C 2.859375 -8.609375 2.800781 -8.617188 2.75 -8.640625 C 2.695312 -8.660156 2.65625 -8.675781 2.625 -8.6875 C 2.5 -8.726562 2.425781 -8.695312 2.40625 -8.59375 C 2.332031 -8.332031 2.269531 -8.082031 2.21875 -7.84375 C 2.164062 -7.601562 2.128906 -7.351562 2.109375 -7.09375 C 2.109375 -7.039062 2.109375 -6.972656 2.109375 -6.890625 C 2.109375 -6.816406 2.109375 -6.71875 2.109375 -6.59375 C 2.085938 -6.46875 2.078125 -6.34375 2.078125 -6.21875 C 2.078125 -6.101562 2.078125 -5.972656 2.078125 -5.828125 Z M 2.625 -9.09375 C 2.695312 -9.09375 2.738281 -9.101562 2.75 -9.125 C 2.789062 -9.175781 2.835938 -9.226562 2.890625 -9.28125 C 2.941406 -9.34375 2.988281 -9.398438 3.03125 -9.453125 C 3.0625 -9.484375 3.097656 -9.523438 3.140625 -9.578125 C 3.191406 -9.640625 3.234375 -9.695312 3.265625 -9.75 C 3.515625 -10.070312 3.816406 -10.507812 4.171875 -11.0625 C 4.535156 -11.625 4.894531 -12.234375 5.25 -12.890625 C 5.601562 -13.546875 5.894531 -14.175781 6.125 -14.78125 C 6.363281 -15.382812 6.484375 -15.882812 6.484375 -16.28125 L 6.484375 -16.421875 C 6.484375 -16.503906 6.425781 -16.53125 6.3125 -16.5 C 6.28125 -16.457031 6.242188 -16.4375 6.203125 -16.4375 C 6.191406 -16.425781 6.175781 -16.414062 6.15625 -16.40625 C 6.132812 -16.394531 6.117188 -16.378906 6.109375 -16.359375 C 5.742188 -16.109375 5.390625 -15.707031 5.046875 -15.15625 C 4.703125 -14.613281 4.378906 -14.007812 4.078125 -13.34375 C 3.785156 -12.6875 3.519531 -12.039062 3.28125 -11.40625 C 3.050781 -10.78125 2.867188 -10.265625 2.734375 -9.859375 C 2.691406 -9.742188 2.671875 -9.679688 2.671875 -9.671875 C 2.648438 -9.628906 2.632812 -9.585938 2.625 -9.546875 C 2.625 -9.503906 2.613281 -9.460938 2.59375 -9.421875 C 2.59375 -9.398438 2.59375 -9.382812 2.59375 -9.375 C 2.59375 -9.375 2.59375 -9.363281 2.59375 -9.34375 C 2.570312 -9.320312 2.5625 -9.285156 2.5625 -9.234375 C 2.53125 -9.140625 2.550781 -9.09375 2.625 -9.09375 Z M 2.625 -9.09375 "/></g></g></g><g fill="#edaec0" fill-opacity="1"><g transform="translate(36.131997, 45.749995)"><g><path d="M 8.609375 -0.140625 C 8.335938 -0.140625 8.082031 -0.1875 7.84375 -0.28125 C 7.613281 -0.382812 7.429688 -0.585938 7.296875 -0.890625 C 7.179688 -1.117188 7.09375 -1.347656 7.03125 -1.578125 C 6.96875 -1.804688 6.9375 -2.046875 6.9375 -2.296875 L 6.9375 -3 C 6.9375 -3.675781 7.007812 -4.425781 7.15625 -5.25 C 7.300781 -6.070312 7.484375 -6.914062 7.703125 -7.78125 C 7.929688 -8.644531 8.171875 -9.472656 8.421875 -10.265625 C 8.671875 -11.066406 8.914062 -11.785156 9.15625 -12.421875 C 9.3125 -12.867188 9.460938 -13.316406 9.609375 -13.765625 C 9.753906 -14.210938 9.898438 -14.671875 10.046875 -15.140625 C 10.078125 -15.253906 10.109375 -15.363281 10.140625 -15.46875 C 10.179688 -15.582031 10.191406 -15.703125 10.171875 -15.828125 C 10.171875 -15.835938 10.164062 -15.851562 10.15625 -15.875 L 10.09375 -15.875 C 10.039062 -15.84375 10 -15.8125 9.96875 -15.78125 C 9.945312 -15.75 9.925781 -15.726562 9.90625 -15.71875 C 9.550781 -15.257812 9.238281 -14.78125 8.96875 -14.28125 C 8.695312 -13.78125 8.4375 -13.269531 8.1875 -12.75 C 7.570312 -11.425781 6.976562 -10.070312 6.40625 -8.6875 C 6.1875 -8.164062 5.957031 -7.65625 5.71875 -7.15625 C 5.488281 -6.65625 5.25 -6.140625 5 -5.609375 L 4.78125 -5.234375 C 4.664062 -5.078125 4.519531 -5 4.34375 -5 C 4.320312 -5 4.304688 -5.003906 4.296875 -5.015625 C 4.273438 -5.015625 4.257812 -5.015625 4.25 -5.015625 C 4.238281 -5.015625 4.226562 -5.015625 4.21875 -5.015625 C 3.800781 -5.160156 3.566406 -5.429688 3.515625 -5.828125 C 3.453125 -6.316406 3.476562 -6.804688 3.59375 -7.296875 C 3.675781 -7.753906 3.765625 -8.210938 3.859375 -8.671875 C 3.960938 -9.140625 4.082031 -9.609375 4.21875 -10.078125 C 4.226562 -10.160156 4.242188 -10.25 4.265625 -10.34375 C 4.296875 -10.445312 4.320312 -10.546875 4.34375 -10.640625 C 4.382812 -10.722656 4.410156 -10.8125 4.421875 -10.90625 C 4.441406 -11 4.460938 -11.085938 4.484375 -11.171875 C 4.515625 -11.265625 4.515625 -11.347656 4.484375 -11.421875 C 4.484375 -11.453125 4.472656 -11.46875 4.453125 -11.46875 L 4.40625 -11.46875 C 4.164062 -11.238281 3.921875 -10.890625 3.671875 -10.421875 C 3.421875 -9.953125 3.175781 -9.429688 2.9375 -8.859375 C 2.707031 -8.296875 2.5 -7.753906 2.3125 -7.234375 C 2.132812 -6.710938 2.003906 -6.289062 1.921875 -5.96875 C 1.847656 -5.664062 1.769531 -5.363281 1.6875 -5.0625 C 1.601562 -4.757812 1.519531 -4.457031 1.4375 -4.15625 C 1.34375 -3.851562 1.253906 -3.550781 1.171875 -3.25 C 1.085938 -2.957031 1.003906 -2.65625 0.921875 -2.34375 C 0.898438 -2.1875 0.84375 -2.023438 0.75 -1.859375 C 0.71875 -1.773438 0.65625 -1.734375 0.5625 -1.734375 C 0.332031 -1.734375 0.144531 -1.757812 0 -1.8125 C -0.144531 -1.863281 -0.257812 -2.023438 -0.34375 -2.296875 C -0.363281 -2.328125 -0.378906 -2.375 -0.390625 -2.4375 C -0.398438 -2.5 -0.40625 -2.578125 -0.40625 -2.671875 C -0.40625 -3.804688 -0.3125 -5.007812 -0.125 -6.28125 C 0.0625 -7.5625 0.289062 -8.742188 0.5625 -9.828125 C 0.65625 -10.171875 0.742188 -10.503906 0.828125 -10.828125 C 0.921875 -11.148438 1.003906 -11.484375 1.078125 -11.828125 C 1.171875 -12.148438 1.253906 -12.476562 1.328125 -12.8125 C 1.410156 -13.144531 1.5 -13.484375 1.59375 -13.828125 C 1.644531 -14.023438 1.703125 -14.210938 1.765625 -14.390625 C 1.828125 -14.566406 1.914062 -14.753906 2.03125 -14.953125 C 2.0625 -15.066406 2.128906 -15.125 2.234375 -15.125 C 2.378906 -15.132812 2.507812 -15.085938 2.625 -14.984375 C 2.75 -14.878906 2.800781 -14.753906 2.78125 -14.609375 L 2.703125 -14.3125 C 2.359375 -12.507812 1.96875 -10.707031 1.53125 -8.90625 C 1.40625 -8.457031 1.304688 -8.007812 1.234375 -7.5625 C 1.171875 -7.125 1.109375 -6.671875 1.046875 -6.203125 C 1.035156 -6.140625 1.023438 -6.070312 1.015625 -6 C 1.003906 -5.925781 0.988281 -5.84375 0.96875 -5.75 C 0.914062 -5.601562 0.90625 -5.441406 0.9375 -5.265625 L 0.96875 -5.234375 C 1.019531 -5.234375 1.054688 -5.242188 1.078125 -5.265625 L 1.15625 -5.484375 C 1.34375 -6.128906 1.566406 -6.820312 1.828125 -7.5625 C 2.085938 -8.3125 2.382812 -9.050781 2.71875 -9.78125 C 3.050781 -10.507812 3.394531 -11.164062 3.75 -11.75 C 3.789062 -11.78125 3.828125 -11.820312 3.859375 -11.875 C 3.898438 -11.9375 3.9375 -11.992188 3.96875 -12.046875 C 4.039062 -12.148438 4.113281 -12.238281 4.1875 -12.3125 C 4.289062 -12.4375 4.429688 -12.5 4.609375 -12.5 C 4.722656 -12.5 4.789062 -12.488281 4.8125 -12.46875 C 5.09375 -12.394531 5.289062 -12.21875 5.40625 -11.9375 C 5.488281 -11.6875 5.503906 -11.414062 5.453125 -11.125 L 5.046875 -8.9375 C 4.992188 -8.613281 4.9375 -8.289062 4.875 -7.96875 C 4.8125 -7.644531 4.742188 -7.320312 4.671875 -7 C 4.648438 -6.976562 4.648438 -6.945312 4.671875 -6.90625 C 4.671875 -6.894531 4.671875 -6.878906 4.671875 -6.859375 C 4.671875 -6.835938 4.671875 -6.816406 4.671875 -6.796875 C 4.691406 -6.785156 4.707031 -6.78125 4.71875 -6.78125 L 4.75 -6.78125 C 4.769531 -6.789062 4.78125 -6.796875 4.78125 -6.796875 L 4.96875 -7.046875 C 5.113281 -7.335938 5.253906 -7.617188 5.390625 -7.890625 C 5.523438 -8.171875 5.664062 -8.46875 5.8125 -8.78125 C 5.945312 -9.132812 6.09375 -9.488281 6.25 -9.84375 C 6.40625 -10.207031 6.5625 -10.570312 6.71875 -10.9375 C 7.007812 -11.601562 7.300781 -12.269531 7.59375 -12.9375 C 7.894531 -13.601562 8.234375 -14.25 8.609375 -14.875 C 8.804688 -15.21875 9.015625 -15.5625 9.234375 -15.90625 C 9.453125 -16.257812 9.710938 -16.566406 10.015625 -16.828125 C 10.109375 -16.910156 10.207031 -16.953125 10.3125 -16.953125 C 10.507812 -16.953125 10.679688 -16.84375 10.828125 -16.625 C 10.972656 -16.414062 11.050781 -16.226562 11.0625 -16.0625 C 11.0625 -16.03125 11.0625 -15.984375 11.0625 -15.921875 C 11.0625 -15.867188 11.0625 -15.828125 11.0625 -15.796875 C 11.050781 -15.742188 11.046875 -15.6875 11.046875 -15.625 C 11.046875 -15.570312 11.046875 -15.53125 11.046875 -15.5 C 10.992188 -15.082031 10.914062 -14.679688 10.8125 -14.296875 C 10.71875 -13.910156 10.613281 -13.53125 10.5 -13.15625 C 10.34375 -12.59375 10.179688 -12.039062 10.015625 -11.5 C 9.859375 -10.957031 9.6875 -10.410156 9.5 -9.859375 C 9.09375 -8.554688 8.742188 -7.234375 8.453125 -5.890625 C 8.160156 -4.554688 8.015625 -3.207031 8.015625 -1.84375 C 8.035156 -1.632812 8.054688 -1.445312 8.078125 -1.28125 C 8.109375 -1.125 8.171875 -0.957031 8.265625 -0.78125 C 8.296875 -0.675781 8.375 -0.625 8.5 -0.625 C 8.5625 -0.625 8.597656 -0.628906 8.609375 -0.640625 C 8.679688 -0.679688 8.75 -0.722656 8.8125 -0.765625 C 8.875 -0.816406 8.925781 -0.867188 8.96875 -0.921875 C 9.144531 -1.117188 9.304688 -1.316406 9.453125 -1.515625 C 9.609375 -1.710938 9.742188 -1.925781 9.859375 -2.15625 C 9.890625 -2.25 9.925781 -2.332031 9.96875 -2.40625 C 10.019531 -2.488281 10.0625 -2.566406 10.09375 -2.640625 C 10.132812 -2.734375 10.175781 -2.816406 10.21875 -2.890625 C 10.257812 -2.960938 10.300781 -3.035156 10.34375 -3.109375 C 10.363281 -3.140625 10.382812 -3.171875 10.40625 -3.203125 C 10.4375 -3.242188 10.457031 -3.285156 10.46875 -3.328125 C 10.488281 -3.359375 10.507812 -3.382812 10.53125 -3.40625 C 10.550781 -3.4375 10.566406 -3.460938 10.578125 -3.484375 C 10.617188 -3.535156 10.703125 -3.5625 10.828125 -3.5625 C 10.984375 -3.5625 11.046875 -3.5 11.015625 -3.375 L 10.96875 -3.234375 C 10.925781 -3.128906 10.878906 -3.019531 10.828125 -2.90625 C 10.773438 -2.800781 10.722656 -2.695312 10.671875 -2.59375 C 10.609375 -2.488281 10.550781 -2.378906 10.5 -2.265625 C 10.445312 -2.160156 10.40625 -2.046875 10.375 -1.921875 C 10.257812 -1.703125 10.113281 -1.453125 9.9375 -1.171875 C 9.769531 -0.890625 9.570312 -0.644531 9.34375 -0.4375 C 9.125 -0.238281 8.878906 -0.140625 8.609375 -0.140625 Z M 8.609375 -0.140625 "/></g></g></g></svg>