<svg xmlns="http://www.w3.org/2000/svg" xmlns:xlink="http://www.w3.org/1999/xlink" width="74" zoomAndPan="magnify" viewBox="0 0 55.5 30.000001" height="40" preserveAspectRatio="xMidYMid meet" version="1.0"><defs><g/></defs><g fill="#ff66c4" fill-opacity="1"><g transform="translate(7.056871, 15.61111)"><g><path d="M 5.984375 -2.609375 C 6.179688 -2.648438 6.375 -2.71875 6.5625 -2.8125 C 6.757812 -2.90625 6.96875 -2.953125 7.1875 -2.953125 C 7.195312 -2.953125 7.210938 -2.945312 7.234375 -2.9375 C 7.265625 -2.9375 7.285156 -2.9375 7.296875 -2.9375 C 7.679688 -2.90625 7.984375 -2.78125 8.203125 -2.5625 C 8.429688 -2.351562 8.59375 -2.082031 8.6875 -1.75 C 8.789062 -1.425781 8.851562 -1.078125 8.875 -0.703125 C 8.90625 -0.328125 8.921875 0.0351562 8.921875 0.390625 C 9.003906 0.367188 9.101562 0.316406 9.21875 0.234375 C 9.332031 0.160156 9.445312 0.078125 9.5625 -0.015625 C 9.675781 -0.117188 9.757812 -0.191406 9.8125 -0.234375 L 10.453125 -0.765625 C 10.617188 -0.898438 10.8125 -1.082031 11.03125 -1.3125 C 11.25 -1.539062 11.441406 -1.738281 11.609375 -1.90625 C 11.722656 -2.03125 11.800781 -2.128906 11.84375 -2.203125 C 11.894531 -2.285156 12.003906 -2.328125 12.171875 -2.328125 C 12.179688 -2.328125 12.191406 -2.328125 12.203125 -2.328125 C 12.222656 -2.328125 12.238281 -2.328125 12.25 -2.328125 C 12.269531 -2.210938 12.28125 -2.132812 12.28125 -2.09375 C 12.28125 -2.0625 12.242188 -2 12.171875 -1.90625 C 12.128906 -1.851562 12.09375 -1.800781 12.0625 -1.75 C 12.03125 -1.695312 11.984375 -1.648438 11.921875 -1.609375 C 11.867188 -1.546875 11.828125 -1.492188 11.796875 -1.453125 C 11.773438 -1.410156 11.734375 -1.363281 11.671875 -1.3125 C 11.597656 -1.21875 11.515625 -1.132812 11.421875 -1.0625 L 10.3125 -0.046875 C 10.226562 0.046875 10.132812 0.128906 10.03125 0.203125 C 9.9375 0.285156 9.835938 0.367188 9.734375 0.453125 C 9.492188 0.617188 9.3125 0.738281 9.1875 0.8125 C 9.070312 0.894531 8.988281 0.957031 8.9375 1 C 8.894531 1.050781 8.863281 1.117188 8.84375 1.203125 C 8.832031 1.285156 8.804688 1.421875 8.765625 1.609375 C 8.597656 2.535156 8.304688 3.421875 7.890625 4.265625 C 7.484375 5.109375 6.941406 5.867188 6.265625 6.546875 C 5.785156 7.023438 5.304688 7.367188 4.828125 7.578125 C 4.359375 7.796875 3.929688 7.90625 3.546875 7.90625 C 3.109375 7.90625 2.75 7.789062 2.46875 7.5625 C 2.1875 7.34375 2.015625 7.039062 1.953125 6.65625 C 1.898438 6.269531 1.992188 5.835938 2.234375 5.359375 C 2.410156 5.023438 2.628906 4.710938 2.890625 4.421875 C 3.160156 4.128906 3.4375 3.875 3.71875 3.65625 C 4.375 3.144531 5.019531 2.707031 5.65625 2.34375 C 6.289062 1.988281 6.957031 1.609375 7.65625 1.203125 C 7.851562 1.085938 8.003906 1 8.109375 0.9375 C 8.210938 0.882812 8.285156 0.800781 8.328125 0.6875 L 8.328125 0.65625 C 8.367188 0.40625 8.390625 0.109375 8.390625 -0.234375 C 8.390625 -0.585938 8.351562 -0.925781 8.28125 -1.25 C 8.207031 -1.582031 8.082031 -1.859375 7.90625 -2.078125 C 7.726562 -2.304688 7.488281 -2.421875 7.1875 -2.421875 C 7.039062 -2.421875 6.890625 -2.394531 6.734375 -2.34375 C 6.378906 -2.226562 6.109375 -2.109375 5.921875 -1.984375 C 5.734375 -1.867188 5.570312 -1.75 5.4375 -1.625 C 5.3125 -1.507812 5.148438 -1.390625 4.953125 -1.265625 C 4.929688 -1.253906 4.910156 -1.238281 4.890625 -1.21875 C 4.878906 -1.195312 4.851562 -1.1875 4.8125 -1.1875 C 4.800781 -1.1875 4.785156 -1.1875 4.765625 -1.1875 C 4.753906 -1.195312 4.738281 -1.203125 4.71875 -1.203125 C 4.582031 -1.234375 4.515625 -1.296875 4.515625 -1.390625 C 4.515625 -1.492188 4.550781 -1.601562 4.625 -1.71875 C 4.707031 -1.832031 4.769531 -1.914062 4.8125 -1.96875 C 4.851562 -2.039062 4.894531 -2.101562 4.9375 -2.15625 C 4.976562 -2.207031 5.019531 -2.265625 5.0625 -2.328125 C 5.40625 -2.828125 5.753906 -3.316406 6.109375 -3.796875 C 6.460938 -4.273438 6.796875 -4.785156 7.109375 -5.328125 C 7.210938 -5.503906 7.332031 -5.75 7.46875 -6.0625 C 7.613281 -6.382812 7.75 -6.726562 7.875 -7.09375 C 8 -7.46875 8.09375 -7.835938 8.15625 -8.203125 C 8.226562 -8.566406 8.234375 -8.898438 8.171875 -9.203125 C 8.128906 -9.378906 8.078125 -9.5 8.015625 -9.5625 C 7.953125 -9.632812 7.875 -9.671875 7.78125 -9.671875 C 7.675781 -9.671875 7.554688 -9.628906 7.421875 -9.546875 C 7.296875 -9.460938 7.171875 -9.363281 7.046875 -9.25 C 6.929688 -9.144531 6.835938 -9.054688 6.765625 -8.984375 C 6.398438 -8.609375 6.046875 -8.15625 5.703125 -7.625 C 5.367188 -7.09375 5.054688 -6.515625 4.765625 -5.890625 C 4.484375 -5.273438 4.21875 -4.640625 3.96875 -3.984375 C 3.726562 -3.335938 3.507812 -2.703125 3.3125 -2.078125 C 3.125 -1.460938 2.960938 -0.894531 2.828125 -0.375 C 2.742188 -0.0390625 2.65625 0.285156 2.5625 0.609375 C 2.476562 0.929688 2.398438 1.269531 2.328125 1.625 L 2.078125 3.296875 C 2.054688 3.398438 2.03125 3.46875 2 3.5 C 1.976562 3.539062 1.921875 3.582031 1.828125 3.625 C 1.660156 3.59375 1.570312 3.53125 1.5625 3.4375 C 1.5625 3.34375 1.566406 3.210938 1.578125 3.046875 L 1.828125 0.578125 C 1.921875 -0.535156 2.039062 -1.628906 2.1875 -2.703125 C 2.34375 -3.785156 2.476562 -4.875 2.59375 -5.96875 C 2.632812 -6.238281 2.671875 -6.507812 2.703125 -6.78125 C 2.734375 -7.0625 2.75 -7.335938 2.75 -7.609375 C 2.75 -7.753906 2.753906 -7.914062 2.765625 -8.09375 C 2.773438 -8.269531 2.769531 -8.421875 2.75 -8.546875 C 2.726562 -8.691406 2.703125 -8.816406 2.671875 -8.921875 C 2.648438 -9.035156 2.625 -9.15625 2.59375 -9.28125 C 2.457031 -9.269531 2.335938 -9.191406 2.234375 -9.046875 C 2.128906 -8.898438 2.046875 -8.769531 1.984375 -8.65625 C 1.609375 -8.101562 1.289062 -7.488281 1.03125 -6.8125 C 0.769531 -6.132812 0.59375 -5.457031 0.5 -4.78125 C 0.46875 -4.550781 0.445312 -4.28125 0.4375 -3.96875 C 0.425781 -3.664062 0.457031 -3.410156 0.53125 -3.203125 C 0.582031 -3.066406 0.640625 -2.984375 0.703125 -2.953125 C 0.773438 -2.921875 0.84375 -2.90625 0.90625 -2.90625 C 0.976562 -2.90625 1.023438 -2.890625 1.046875 -2.859375 C 1.078125 -2.828125 1.082031 -2.742188 1.0625 -2.609375 C 0.945312 -2.578125 0.835938 -2.5625 0.734375 -2.5625 C 0.597656 -2.5625 0.488281 -2.59375 0.40625 -2.65625 C 0.320312 -2.726562 0.242188 -2.832031 0.171875 -2.96875 C 0.0546875 -3.21875 0 -3.492188 0 -3.796875 C 0 -4.097656 0.015625 -4.382812 0.046875 -4.65625 C 0.0976562 -5.09375 0.1875 -5.523438 0.3125 -5.953125 C 0.4375 -6.378906 0.570312 -6.796875 0.71875 -7.203125 L 1.125 -8.09375 C 1.164062 -8.1875 1.238281 -8.328125 1.34375 -8.515625 C 1.445312 -8.710938 1.566406 -8.910156 1.703125 -9.109375 C 1.835938 -9.304688 1.984375 -9.472656 2.140625 -9.609375 C 2.296875 -9.753906 2.453125 -9.828125 2.609375 -9.828125 C 2.753906 -9.828125 2.882812 -9.753906 3 -9.609375 C 3.144531 -9.421875 3.242188 -9.203125 3.296875 -8.953125 C 3.347656 -8.703125 3.367188 -8.441406 3.359375 -8.171875 C 3.359375 -7.898438 3.359375 -7.644531 3.359375 -7.40625 C 3.359375 -7.1875 3.347656 -6.988281 3.328125 -6.8125 C 3.304688 -6.632812 3.285156 -6.441406 3.265625 -6.234375 C 3.242188 -5.835938 3.207031 -5.445312 3.15625 -5.0625 C 3.101562 -4.6875 3.046875 -4.300781 2.984375 -3.90625 L 2.796875 -2.21875 C 2.773438 -2.101562 2.753906 -2.003906 2.734375 -1.921875 C 2.722656 -1.835938 2.71875 -1.742188 2.71875 -1.640625 C 2.78125 -1.710938 2.820312 -1.804688 2.84375 -1.921875 C 2.875 -2.035156 2.898438 -2.140625 2.921875 -2.234375 L 3.109375 -2.8125 C 3.335938 -3.570312 3.609375 -4.328125 3.921875 -5.078125 C 4.242188 -5.828125 4.585938 -6.539062 4.953125 -7.21875 C 5.097656 -7.445312 5.28125 -7.726562 5.5 -8.0625 C 5.71875 -8.394531 5.957031 -8.722656 6.21875 -9.046875 C 6.488281 -9.367188 6.757812 -9.632812 7.03125 -9.84375 C 7.3125 -10.0625 7.585938 -10.171875 7.859375 -10.171875 C 8.066406 -10.171875 8.25 -10.082031 8.40625 -9.90625 C 8.5625 -9.738281 8.671875 -9.484375 8.734375 -9.140625 C 8.796875 -8.773438 8.785156 -8.382812 8.703125 -7.96875 C 8.628906 -7.5625 8.515625 -7.144531 8.359375 -6.71875 C 8.203125 -6.300781 8.023438 -5.894531 7.828125 -5.5 C 7.628906 -5.113281 7.4375 -4.765625 7.25 -4.453125 C 7.175781 -4.347656 7.078125 -4.207031 6.953125 -4.03125 C 6.835938 -3.851562 6.710938 -3.664062 6.578125 -3.46875 C 6.441406 -3.28125 6.316406 -3.109375 6.203125 -2.953125 C 6.097656 -2.796875 6.023438 -2.679688 5.984375 -2.609375 Z M 3.515625 7.453125 C 3.703125 7.453125 3.894531 7.414062 4.09375 7.34375 C 4.300781 7.28125 4.46875 7.21875 4.59375 7.15625 C 5.09375 6.90625 5.523438 6.585938 5.890625 6.203125 C 6.265625 5.828125 6.585938 5.40625 6.859375 4.9375 C 7.140625 4.476562 7.390625 4.003906 7.609375 3.515625 C 7.660156 3.421875 7.71875 3.28125 7.78125 3.09375 C 7.84375 2.90625 7.90625 2.703125 7.96875 2.484375 C 8.039062 2.273438 8.097656 2.078125 8.140625 1.890625 C 8.179688 1.710938 8.203125 1.570312 8.203125 1.46875 L 5.203125 3.1875 L 4.046875 4.03125 C 3.898438 4.132812 3.722656 4.285156 3.515625 4.484375 C 3.316406 4.679688 3.160156 4.859375 3.046875 5.015625 C 2.691406 5.472656 2.488281 5.882812 2.4375 6.25 C 2.394531 6.613281 2.472656 6.90625 2.671875 7.125 C 2.867188 7.34375 3.148438 7.453125 3.515625 7.453125 Z M 3.515625 7.453125 "/></g></g></g><g fill="#ff66c4" fill-opacity="1"><g transform="translate(18.785164, 15.61111)"><g><path d="M 0.03125 -1.015625 C 0.03125 -1.453125 0.0546875 -1.921875 0.109375 -2.421875 C 0.160156 -2.929688 0.226562 -3.4375 0.3125 -3.9375 C 0.40625 -4.4375 0.503906 -4.882812 0.609375 -5.28125 C 0.648438 -5.414062 0.691406 -5.5625 0.734375 -5.71875 C 0.773438 -5.882812 0.832031 -6.023438 0.90625 -6.140625 C 0.976562 -6.253906 1.070312 -6.3125 1.1875 -6.3125 C 1.289062 -6.3125 1.351562 -6.269531 1.375 -6.1875 C 1.40625 -6.113281 1.40625 -6.019531 1.375 -5.90625 C 1.351562 -5.800781 1.328125 -5.703125 1.296875 -5.609375 C 1.265625 -5.523438 1.242188 -5.460938 1.234375 -5.421875 C 1.160156 -5.160156 1.078125 -4.804688 0.984375 -4.359375 C 0.898438 -3.910156 0.816406 -3.414062 0.734375 -2.875 C 0.648438 -2.34375 0.582031 -1.816406 0.53125 -1.296875 C 0.488281 -0.773438 0.476562 -0.300781 0.5 0.125 C 0.53125 0.550781 0.601562 0.875 0.71875 1.09375 C 0.863281 1.019531 0.984375 0.90625 1.078125 0.75 C 1.179688 0.59375 1.269531 0.4375 1.34375 0.28125 C 1.539062 -0.09375 1.734375 -0.492188 1.921875 -0.921875 C 2.117188 -1.359375 2.320312 -1.765625 2.53125 -2.140625 C 2.601562 -2.273438 2.675781 -2.34375 2.75 -2.34375 C 2.789062 -2.34375 2.820312 -2.328125 2.84375 -2.296875 C 2.863281 -2.265625 2.875 -2.234375 2.875 -2.203125 C 2.875 -2.171875 2.835938 -2.085938 2.765625 -1.953125 C 2.691406 -1.816406 2.617188 -1.671875 2.546875 -1.515625 C 2.472656 -1.367188 2.425781 -1.273438 2.40625 -1.234375 C 2.3125 -1.046875 2.207031 -0.828125 2.09375 -0.578125 C 1.988281 -0.335938 1.882812 -0.101562 1.78125 0.125 C 1.675781 0.363281 1.578125 0.566406 1.484375 0.734375 C 1.441406 0.804688 1.378906 0.898438 1.296875 1.015625 C 1.222656 1.128906 1.144531 1.226562 1.0625 1.3125 C 0.976562 1.40625 0.878906 1.453125 0.765625 1.453125 C 0.585938 1.453125 0.445312 1.363281 0.34375 1.1875 C 0.25 1.019531 0.175781 0.800781 0.125 0.53125 C 0.0820312 0.269531 0.0546875 0.00390625 0.046875 -0.265625 C 0.0351562 -0.546875 0.03125 -0.796875 0.03125 -1.015625 Z M 0.03125 -1.015625 "/></g></g></g><g fill="#ff66c4" fill-opacity="1"><g transform="translate(21.091512, 15.61111)"><g><path d="M 1.09375 0.046875 C 0.914062 0.046875 0.757812 -0.00390625 0.625 -0.109375 C 0.488281 -0.222656 0.382812 -0.34375 0.3125 -0.46875 C 0.15625 -0.769531 0.0664062 -1.125 0.046875 -1.53125 C 0.0234375 -1.9375 0.0507812 -2.304688 0.125 -2.640625 C 0.132812 -2.734375 0.15625 -2.847656 0.1875 -2.984375 C 0.21875 -3.117188 0.265625 -3.238281 0.328125 -3.34375 C 0.390625 -3.445312 0.460938 -3.5 0.546875 -3.5 C 0.753906 -3.5 0.851562 -3.429688 0.84375 -3.296875 C 0.84375 -3.160156 0.804688 -2.945312 0.734375 -2.65625 C 0.660156 -2.375 0.625 -2.015625 0.625 -1.578125 C 0.625 -1.441406 0.640625 -1.28125 0.671875 -1.09375 C 0.710938 -0.914062 0.769531 -0.753906 0.84375 -0.609375 C 0.914062 -0.472656 1.007812 -0.40625 1.125 -0.40625 C 1.269531 -0.40625 1.429688 -0.46875 1.609375 -0.59375 C 1.785156 -0.71875 1.945312 -0.851562 2.09375 -1 C 2.25 -1.15625 2.359375 -1.269531 2.421875 -1.34375 C 2.441406 -1.363281 2.488281 -1.421875 2.5625 -1.515625 C 2.644531 -1.617188 2.738281 -1.734375 2.84375 -1.859375 C 2.957031 -1.992188 3.066406 -2.109375 3.171875 -2.203125 C 3.273438 -2.296875 3.359375 -2.34375 3.421875 -2.34375 C 3.484375 -2.34375 3.515625 -2.289062 3.515625 -2.1875 C 3.515625 -2.125 3.472656 -2.03125 3.390625 -1.90625 C 3.304688 -1.78125 3.207031 -1.644531 3.09375 -1.5 C 2.976562 -1.363281 2.863281 -1.234375 2.75 -1.109375 C 2.644531 -0.992188 2.566406 -0.910156 2.515625 -0.859375 C 2.410156 -0.742188 2.285156 -0.613281 2.140625 -0.46875 C 1.992188 -0.332031 1.832031 -0.210938 1.65625 -0.109375 C 1.488281 -0.00390625 1.300781 0.046875 1.09375 0.046875 Z M 0.671875 -5.15625 C 0.671875 -5.300781 0.707031 -5.425781 0.78125 -5.53125 C 0.863281 -5.644531 0.953125 -5.703125 1.046875 -5.703125 C 1.148438 -5.703125 1.238281 -5.632812 1.3125 -5.5 C 1.4375 -5.257812 1.453125 -5.070312 1.359375 -4.9375 C 1.265625 -4.800781 1.148438 -4.734375 1.015625 -4.734375 C 0.929688 -4.734375 0.851562 -4.765625 0.78125 -4.828125 C 0.707031 -4.898438 0.671875 -5.007812 0.671875 -5.15625 Z M 0.671875 -5.15625 "/></g></g></g><g fill="#ff66c4" fill-opacity="1"><g transform="translate(24.079278, 15.61111)"><g><path d="M 0.15625 2.15625 C 0.15625 2.34375 0.210938 2.4375 0.328125 2.4375 C 0.390625 2.4375 0.453125 2.414062 0.515625 2.375 C 0.585938 2.332031 0.644531 2.289062 0.6875 2.25 C 0.863281 2.125 1.019531 1.925781 1.15625 1.65625 C 1.289062 1.394531 1.390625 1.15625 1.453125 0.9375 C 1.492188 0.78125 1.515625 0.625 1.515625 0.46875 C 1.523438 0.320312 1.53125 0.15625 1.53125 -0.03125 C 1.425781 0.03125 1.304688 0.140625 1.171875 0.296875 C 1.035156 0.453125 0.929688 0.578125 0.859375 0.671875 C 0.691406 0.859375 0.53125 1.085938 0.375 1.359375 C 0.226562 1.628906 0.15625 1.894531 0.15625 2.15625 Z M 0.046875 -2.125 C 0.046875 -2.351562 0.101562 -2.554688 0.21875 -2.734375 C 0.34375 -2.910156 0.488281 -3.050781 0.65625 -3.15625 C 0.832031 -3.269531 0.976562 -3.328125 1.09375 -3.328125 C 1.195312 -3.328125 1.269531 -3.289062 1.3125 -3.21875 C 1.363281 -3.15625 1.367188 -3.039062 1.328125 -2.875 C 1.222656 -2.84375 1.144531 -2.820312 1.09375 -2.8125 C 1.050781 -2.8125 1.015625 -2.800781 0.984375 -2.78125 C 0.960938 -2.757812 0.921875 -2.710938 0.859375 -2.640625 C 0.679688 -2.441406 0.597656 -2.285156 0.609375 -2.171875 C 0.617188 -2.054688 0.6875 -1.945312 0.8125 -1.84375 C 0.945312 -1.738281 1.109375 -1.613281 1.296875 -1.46875 C 1.484375 -1.320312 1.660156 -1.117188 1.828125 -0.859375 C 2.015625 -0.992188 2.207031 -1.148438 2.40625 -1.328125 L 3.625 -2.171875 C 3.738281 -2.253906 3.835938 -2.3125 3.921875 -2.34375 C 4.003906 -2.375 4.078125 -2.390625 4.140625 -2.390625 C 4.242188 -2.390625 4.285156 -2.34375 4.265625 -2.25 C 4.253906 -2.164062 4.175781 -2.082031 4.03125 -2 L 3.140625 -1.375 C 3.097656 -1.351562 3.019531 -1.300781 2.90625 -1.21875 C 2.789062 -1.132812 2.664062 -1.039062 2.53125 -0.9375 C 2.394531 -0.84375 2.28125 -0.75 2.1875 -0.65625 C 2.09375 -0.570312 2.039062 -0.519531 2.03125 -0.5 C 2.019531 -0.457031 2.03125 -0.375 2.0625 -0.25 C 2.101562 -0.125 2.128906 0.0351562 2.140625 0.234375 C 2.148438 0.429688 2.125 0.671875 2.0625 0.953125 C 2 1.234375 1.859375 1.5625 1.640625 1.9375 C 1.441406 2.257812 1.226562 2.5 1 2.65625 C 0.78125 2.8125 0.566406 2.890625 0.359375 2.890625 C 0.179688 2.890625 0.0351562 2.828125 -0.078125 2.703125 C -0.203125 2.578125 -0.265625 2.394531 -0.265625 2.15625 C -0.265625 1.863281 -0.191406 1.578125 -0.046875 1.296875 C 0.0976562 1.015625 0.269531 0.753906 0.46875 0.515625 C 0.675781 0.285156 0.863281 0.0859375 1.03125 -0.078125 C 1.195312 -0.253906 1.304688 -0.378906 1.359375 -0.453125 C 1.253906 -0.640625 1.128906 -0.800781 0.984375 -0.9375 C 0.835938 -1.070312 0.691406 -1.195312 0.546875 -1.3125 C 0.398438 -1.425781 0.28125 -1.546875 0.1875 -1.671875 C 0.09375 -1.796875 0.046875 -1.945312 0.046875 -2.125 Z M 0.046875 -2.125 "/></g></g></g><g fill="#ff66c4" fill-opacity="1"><g transform="translate(27.866399, 15.61111)"><g><path d="M 0.15625 2.15625 C 0.15625 2.34375 0.210938 2.4375 0.328125 2.4375 C 0.390625 2.4375 0.453125 2.414062 0.515625 2.375 C 0.585938 2.332031 0.644531 2.289062 0.6875 2.25 C 0.863281 2.125 1.019531 1.925781 1.15625 1.65625 C 1.289062 1.394531 1.390625 1.15625 1.453125 0.9375 C 1.492188 0.78125 1.515625 0.625 1.515625 0.46875 C 1.523438 0.320312 1.53125 0.15625 1.53125 -0.03125 C 1.425781 0.03125 1.304688 0.140625 1.171875 0.296875 C 1.035156 0.453125 0.929688 0.578125 0.859375 0.671875 C 0.691406 0.859375 0.53125 1.085938 0.375 1.359375 C 0.226562 1.628906 0.15625 1.894531 0.15625 2.15625 Z M 0.046875 -2.125 C 0.046875 -2.351562 0.101562 -2.554688 0.21875 -2.734375 C 0.34375 -2.910156 0.488281 -3.050781 0.65625 -3.15625 C 0.832031 -3.269531 0.976562 -3.328125 1.09375 -3.328125 C 1.195312 -3.328125 1.269531 -3.289062 1.3125 -3.21875 C 1.363281 -3.15625 1.367188 -3.039062 1.328125 -2.875 C 1.222656 -2.84375 1.144531 -2.820312 1.09375 -2.8125 C 1.050781 -2.8125 1.015625 -2.800781 0.984375 -2.78125 C 0.960938 -2.757812 0.921875 -2.710938 0.859375 -2.640625 C 0.679688 -2.441406 0.597656 -2.285156 0.609375 -2.171875 C 0.617188 -2.054688 0.6875 -1.945312 0.8125 -1.84375 C 0.945312 -1.738281 1.109375 -1.613281 1.296875 -1.46875 C 1.484375 -1.320312 1.660156 -1.117188 1.828125 -0.859375 C 2.015625 -0.992188 2.207031 -1.148438 2.40625 -1.328125 L 3.625 -2.171875 C 3.738281 -2.253906 3.835938 -2.3125 3.921875 -2.34375 C 4.003906 -2.375 4.078125 -2.390625 4.140625 -2.390625 C 4.242188 -2.390625 4.285156 -2.34375 4.265625 -2.25 C 4.253906 -2.164062 4.175781 -2.082031 4.03125 -2 L 3.140625 -1.375 C 3.097656 -1.351562 3.019531 -1.300781 2.90625 -1.21875 C 2.789062 -1.132812 2.664062 -1.039062 2.53125 -0.9375 C 2.394531 -0.84375 2.28125 -0.75 2.1875 -0.65625 C 2.09375 -0.570312 2.039062 -0.519531 2.03125 -0.5 C 2.019531 -0.457031 2.03125 -0.375 2.0625 -0.25 C 2.101562 -0.125 2.128906 0.0351562 2.140625 0.234375 C 2.148438 0.429688 2.125 0.671875 2.0625 0.953125 C 2 1.234375 1.859375 1.5625 1.640625 1.9375 C 1.441406 2.257812 1.226562 2.5 1 2.65625 C 0.78125 2.8125 0.566406 2.890625 0.359375 2.890625 C 0.179688 2.890625 0.0351562 2.828125 -0.078125 2.703125 C -0.203125 2.578125 -0.265625 2.394531 -0.265625 2.15625 C -0.265625 1.863281 -0.191406 1.578125 -0.046875 1.296875 C 0.0976562 1.015625 0.269531 0.753906 0.46875 0.515625 C 0.675781 0.285156 0.863281 0.0859375 1.03125 -0.078125 C 1.195312 -0.253906 1.304688 -0.378906 1.359375 -0.453125 C 1.253906 -0.640625 1.128906 -0.800781 0.984375 -0.9375 C 0.835938 -1.070312 0.691406 -1.195312 0.546875 -1.3125 C 0.398438 -1.425781 0.28125 -1.546875 0.1875 -1.671875 C 0.09375 -1.796875 0.046875 -1.945312 0.046875 -2.125 Z M 0.046875 -2.125 "/></g></g></g><g fill="#ff66c4" fill-opacity="1"><g transform="translate(31.653521, 15.61111)"><g><path d="M 4.828125 0.328125 C 4.898438 0.273438 4.972656 0.171875 5.046875 0.015625 C 5.128906 -0.128906 5.203125 -0.285156 5.265625 -0.453125 C 5.328125 -0.617188 5.378906 -0.753906 5.421875 -0.859375 C 5.671875 -1.503906 5.894531 -2.144531 6.09375 -2.78125 C 6.300781 -3.414062 6.535156 -4.066406 6.796875 -4.734375 C 6.847656 -4.847656 6.925781 -5.03125 7.03125 -5.28125 C 7.144531 -5.539062 7.273438 -5.832031 7.421875 -6.15625 C 7.566406 -6.488281 7.726562 -6.820312 7.90625 -7.15625 C 8.09375 -7.5 8.28125 -7.8125 8.46875 -8.09375 C 8.65625 -8.382812 8.835938 -8.617188 9.015625 -8.796875 C 9.191406 -8.984375 9.351562 -9.078125 9.5 -9.078125 C 9.707031 -9.078125 9.859375 -8.976562 9.953125 -8.78125 C 10.046875 -8.582031 10.097656 -8.332031 10.109375 -8.03125 C 10.128906 -7.738281 10.125 -7.429688 10.09375 -7.109375 C 10.070312 -6.796875 10.039062 -6.515625 10 -6.265625 C 9.96875 -6.015625 9.941406 -5.84375 9.921875 -5.75 L 9.109375 -0.34375 C 8.972656 0.625 8.863281 1.570312 8.78125 2.5 C 8.707031 3.425781 8.617188 4.363281 8.515625 5.3125 C 8.503906 5.539062 8.5 5.796875 8.5 6.078125 C 8.5 6.359375 8.5 6.625 8.5 6.875 C 8.5 6.988281 8.476562 7.070312 8.4375 7.125 C 8.394531 7.175781 8.351562 7.203125 8.3125 7.203125 C 8.257812 7.203125 8.207031 7.171875 8.15625 7.109375 C 8.113281 7.054688 8.085938 6.976562 8.078125 6.875 C 8.066406 6.757812 8.0625 6.671875 8.0625 6.609375 C 8.0625 6.554688 8.054688 6.488281 8.046875 6.40625 L 8.4375 0.5625 C 8.507812 0.0078125 8.570312 -0.5 8.625 -0.96875 C 8.6875 -1.4375 8.75 -1.90625 8.8125 -2.375 C 8.882812 -2.851562 8.96875 -3.378906 9.0625 -3.953125 C 9.082031 -4.109375 9.117188 -4.34375 9.171875 -4.65625 C 9.222656 -4.96875 9.28125 -5.320312 9.34375 -5.71875 C 9.40625 -6.113281 9.457031 -6.503906 9.5 -6.890625 C 9.550781 -7.285156 9.578125 -7.632812 9.578125 -7.9375 C 9.585938 -8.25 9.5625 -8.46875 9.5 -8.59375 C 9.332031 -8.507812 9.175781 -8.375 9.03125 -8.1875 C 8.894531 -8 8.773438 -7.816406 8.671875 -7.640625 C 8.503906 -7.347656 8.351562 -7.082031 8.21875 -6.84375 C 8.09375 -6.601562 7.972656 -6.359375 7.859375 -6.109375 C 7.742188 -5.867188 7.617188 -5.59375 7.484375 -5.28125 C 7.265625 -4.800781 7.085938 -4.363281 6.953125 -3.96875 C 6.828125 -3.570312 6.675781 -3.160156 6.5 -2.734375 C 6.457031 -2.617188 6.394531 -2.421875 6.3125 -2.140625 C 6.226562 -1.867188 6.128906 -1.5625 6.015625 -1.21875 C 5.898438 -0.882812 5.773438 -0.5625 5.640625 -0.25 C 5.515625 0.0507812 5.378906 0.304688 5.234375 0.515625 C 5.097656 0.722656 4.960938 0.828125 4.828125 0.828125 C 4.679688 0.828125 4.566406 0.75 4.484375 0.59375 C 4.410156 0.4375 4.359375 0.242188 4.328125 0.015625 C 4.296875 -0.203125 4.28125 -0.425781 4.28125 -0.65625 C 4.28125 -0.882812 4.285156 -1.066406 4.296875 -1.203125 L 4.5 -3.828125 C 4.5 -3.878906 4.492188 -3.9375 4.484375 -4 C 4.472656 -4.070312 4.46875 -4.15625 4.46875 -4.25 C 4.394531 -4.226562 4.347656 -4.203125 4.328125 -4.171875 C 4.304688 -4.148438 4.273438 -4.109375 4.234375 -4.046875 C 4.046875 -3.804688 3.867188 -3.507812 3.703125 -3.15625 C 3.546875 -2.800781 3.394531 -2.421875 3.25 -2.015625 C 3.113281 -1.617188 2.992188 -1.234375 2.890625 -0.859375 C 2.785156 -0.484375 2.703125 -0.15625 2.640625 0.125 C 2.535156 0.53125 2.429688 0.941406 2.328125 1.359375 C 2.222656 1.785156 2.113281 2.191406 2 2.578125 C 1.9375 2.878906 1.851562 3.171875 1.75 3.453125 C 1.65625 3.742188 1.546875 4.035156 1.421875 4.328125 C 1.367188 4.429688 1.3125 4.515625 1.25 4.578125 C 1.195312 4.640625 1.101562 4.671875 0.96875 4.671875 C 0.820312 4.671875 0.695312 4.554688 0.59375 4.328125 C 0.488281 4.109375 0.40625 3.820312 0.34375 3.46875 C 0.28125 3.125 0.234375 2.757812 0.203125 2.375 C 0.171875 2 0.148438 1.644531 0.140625 1.3125 C 0.128906 0.988281 0.125 0.742188 0.125 0.578125 L 0.265625 -2.078125 C 0.304688 -2.484375 0.351562 -2.890625 0.40625 -3.296875 C 0.457031 -3.703125 0.515625 -4.109375 0.578125 -4.515625 C 0.585938 -4.554688 0.609375 -4.6875 0.640625 -4.90625 C 0.671875 -5.132812 0.71875 -5.410156 0.78125 -5.734375 C 0.851562 -6.054688 0.925781 -6.394531 1 -6.75 C 1.082031 -7.101562 1.164062 -7.429688 1.25 -7.734375 C 1.34375 -8.046875 1.4375 -8.296875 1.53125 -8.484375 C 1.625 -8.679688 1.710938 -8.78125 1.796875 -8.78125 C 1.921875 -8.78125 1.988281 -8.734375 2 -8.640625 C 2.007812 -8.554688 1.992188 -8.457031 1.953125 -8.34375 C 1.921875 -8.226562 1.894531 -8.125 1.875 -8.03125 C 1.738281 -7.53125 1.625 -7.078125 1.53125 -6.671875 C 1.445312 -6.265625 1.367188 -5.851562 1.296875 -5.4375 C 1.222656 -5.03125 1.144531 -4.5625 1.0625 -4.03125 C 0.988281 -3.539062 0.921875 -2.976562 0.859375 -2.34375 C 0.804688 -1.707031 0.757812 -1.035156 0.71875 -0.328125 C 0.675781 0.367188 0.660156 1.050781 0.671875 1.71875 C 0.691406 2.382812 0.75 2.984375 0.84375 3.515625 L 0.96875 4.15625 C 1.039062 4.132812 1.082031 4.101562 1.09375 4.0625 C 1.113281 4.03125 1.144531 3.976562 1.1875 3.90625 L 1.5 2.96875 C 1.695312 2.25 1.890625 1.503906 2.078125 0.734375 C 2.273438 -0.0351562 2.488281 -0.789062 2.71875 -1.53125 C 2.945312 -2.269531 3.21875 -2.953125 3.53125 -3.578125 C 3.613281 -3.742188 3.710938 -3.929688 3.828125 -4.140625 C 3.953125 -4.359375 4.082031 -4.507812 4.21875 -4.59375 C 4.300781 -4.65625 4.390625 -4.6875 4.484375 -4.6875 C 4.628906 -4.6875 4.726562 -4.625 4.78125 -4.5 C 4.851562 -4.375 4.894531 -4.148438 4.90625 -3.828125 C 4.914062 -3.503906 4.90625 -3.140625 4.875 -2.734375 C 4.851562 -2.335938 4.828125 -1.953125 4.796875 -1.578125 C 4.773438 -1.203125 4.765625 -0.898438 4.765625 -0.671875 C 4.765625 -0.410156 4.773438 -0.210938 4.796875 -0.078125 C 4.816406 0.0546875 4.828125 0.191406 4.828125 0.328125 Z M 4.828125 0.328125 "/></g></g></g><g fill="#ff66c4" fill-opacity="1"><g transform="translate(41.678263, 15.61111)"><g><path d="M 0.609375 -2.375 C 0.773438 -2.457031 0.957031 -2.578125 1.15625 -2.734375 C 1.351562 -2.890625 1.460938 -3.070312 1.484375 -3.28125 C 1.367188 -3.257812 1.25 -3.195312 1.125 -3.09375 C 1 -2.988281 0.890625 -2.867188 0.796875 -2.734375 C 0.703125 -2.609375 0.640625 -2.488281 0.609375 -2.375 Z M 0.015625 -2.0625 C 0.015625 -2.28125 0.0859375 -2.515625 0.234375 -2.765625 C 0.378906 -3.015625 0.554688 -3.226562 0.765625 -3.40625 C 0.984375 -3.59375 1.195312 -3.6875 1.40625 -3.6875 C 1.6875 -3.6875 1.832031 -3.578125 1.84375 -3.359375 C 1.863281 -3.140625 1.773438 -2.898438 1.578125 -2.640625 C 1.472656 -2.535156 1.3125 -2.40625 1.09375 -2.25 C 0.882812 -2.101562 0.679688 -2.019531 0.484375 -2 C 0.484375 -1.863281 0.488281 -1.738281 0.5 -1.625 C 0.507812 -1.519531 0.570312 -1.410156 0.6875 -1.296875 C 0.800781 -1.179688 0.941406 -1.125 1.109375 -1.125 C 1.335938 -1.125 1.570312 -1.195312 1.8125 -1.34375 C 2.0625 -1.488281 2.253906 -1.609375 2.390625 -1.703125 C 2.441406 -1.742188 2.484375 -1.773438 2.515625 -1.796875 C 2.546875 -1.828125 2.582031 -1.863281 2.625 -1.90625 C 2.800781 -2.039062 2.914062 -2.140625 2.96875 -2.203125 C 3.019531 -2.273438 3.0625 -2.320312 3.09375 -2.34375 C 3.125 -2.363281 3.207031 -2.375 3.34375 -2.375 C 3.363281 -2.28125 3.367188 -2.210938 3.359375 -2.171875 C 3.359375 -2.140625 3.328125 -2.085938 3.265625 -2.015625 C 3.109375 -1.859375 2.910156 -1.679688 2.671875 -1.484375 C 2.429688 -1.285156 2.171875 -1.109375 1.890625 -0.953125 C 1.617188 -0.804688 1.347656 -0.734375 1.078125 -0.734375 C 0.929688 -0.734375 0.796875 -0.753906 0.671875 -0.796875 C 0.546875 -0.847656 0.425781 -0.929688 0.3125 -1.046875 C 0.15625 -1.203125 0.0664062 -1.363281 0.046875 -1.53125 C 0.0234375 -1.695312 0.015625 -1.875 0.015625 -2.0625 Z M 0.015625 -2.0625 "/></g></g></g><g fill="#ff66c4" fill-opacity="1"><g transform="translate(44.521883, 15.61111)"><g><path d="M 0.609375 -2.375 C 0.773438 -2.457031 0.957031 -2.578125 1.15625 -2.734375 C 1.351562 -2.890625 1.460938 -3.070312 1.484375 -3.28125 C 1.367188 -3.257812 1.25 -3.195312 1.125 -3.09375 C 1 -2.988281 0.890625 -2.867188 0.796875 -2.734375 C 0.703125 -2.609375 0.640625 -2.488281 0.609375 -2.375 Z M 0.015625 -2.0625 C 0.015625 -2.28125 0.0859375 -2.515625 0.234375 -2.765625 C 0.378906 -3.015625 0.554688 -3.226562 0.765625 -3.40625 C 0.984375 -3.59375 1.195312 -3.6875 1.40625 -3.6875 C 1.6875 -3.6875 1.832031 -3.578125 1.84375 -3.359375 C 1.863281 -3.140625 1.773438 -2.898438 1.578125 -2.640625 C 1.472656 -2.535156 1.3125 -2.40625 1.09375 -2.25 C 0.882812 -2.101562 0.679688 -2.019531 0.484375 -2 C 0.484375 -1.863281 0.488281 -1.738281 0.5 -1.625 C 0.507812 -1.519531 0.570312 -1.410156 0.6875 -1.296875 C 0.800781 -1.179688 0.941406 -1.125 1.109375 -1.125 C 1.335938 -1.125 1.570312 -1.195312 1.8125 -1.34375 C 2.0625 -1.488281 2.253906 -1.609375 2.390625 -1.703125 C 2.441406 -1.742188 2.484375 -1.773438 2.515625 -1.796875 C 2.546875 -1.828125 2.582031 -1.863281 2.625 -1.90625 C 2.800781 -2.039062 2.914062 -2.140625 2.96875 -2.203125 C 3.019531 -2.273438 3.0625 -2.320312 3.09375 -2.34375 C 3.125 -2.363281 3.207031 -2.375 3.34375 -2.375 C 3.363281 -2.28125 3.367188 -2.210938 3.359375 -2.171875 C 3.359375 -2.140625 3.328125 -2.085938 3.265625 -2.015625 C 3.109375 -1.859375 2.910156 -1.679688 2.671875 -1.484375 C 2.429688 -1.285156 2.171875 -1.109375 1.890625 -0.953125 C 1.617188 -0.804688 1.347656 -0.734375 1.078125 -0.734375 C 0.929688 -0.734375 0.796875 -0.753906 0.671875 -0.796875 C 0.546875 -0.847656 0.425781 -0.929688 0.3125 -1.046875 C 0.15625 -1.203125 0.0664062 -1.363281 0.046875 -1.53125 C 0.0234375 -1.695312 0.015625 -1.875 0.015625 -2.0625 Z M 0.015625 -2.0625 "/></g></g></g><g fill="#000000" fill-opacity="1"><g transform="translate(15.690285, 23.00473)"><g><path d="M 0.484375 -0.953125 L 1.046875 -0.953125 L 1.046875 -0.859375 L 0.484375 -0.859375 L 0.484375 0 L 0.234375 0 L 0.234375 -1.734375 L 1.265625 -1.734375 L 1.265625 -1.5625 L 0.78125 -1.640625 C 0.6875 -1.640625 0.585938 -1.625 0.484375 -1.59375 Z M 0.484375 -0.953125 "/></g></g></g><g fill="#000000" fill-opacity="1"><g transform="translate(17.266182, 23.00473)"><g><path d="M 0.234375 0 L 0.234375 -1.734375 L 1.28125 -1.734375 L 1.265625 -1.5625 L 0.78125 -1.640625 C 0.6875 -1.640625 0.585938 -1.625 0.484375 -1.59375 L 0.484375 -0.953125 L 1.078125 -0.953125 L 1.078125 -0.859375 L 0.484375 -0.859375 L 0.484375 -0.09375 L 1.296875 -0.171875 L 1.28125 0 Z M 0.234375 0 "/></g></g></g><g fill="#000000" fill-opacity="1"><g transform="translate(19.054474, 23.00473)"><g><path d="M 0.234375 0 L 0.234375 -1.734375 L 1.28125 -1.734375 L 1.265625 -1.5625 L 0.78125 -1.640625 C 0.6875 -1.640625 0.585938 -1.625 0.484375 -1.59375 L 0.484375 -0.953125 L 1.078125 -0.953125 L 1.078125 -0.859375 L 0.484375 -0.859375 L 0.484375 -0.09375 L 1.296875 -0.171875 L 1.28125 0 Z M 0.234375 0 "/></g></g></g><g fill="#000000" fill-opacity="1"><g transform="translate(20.842766, 23.00473)"><g><path d="M 0.234375 0 L 0.234375 -1.734375 L 0.5 -1.734375 L 0.5 -0.140625 C 0.601562 -0.109375 0.6875 -0.09375 0.75 -0.09375 L 1.21875 -0.171875 L 1.1875 0 Z M 0.234375 0 "/></g></g></g><g fill="#000000" fill-opacity="1"><g transform="translate(22.434397, 23.00473)"><g/></g></g><g fill="#000000" fill-opacity="1"><g transform="translate(23.404582, 23.00473)"><g><path d="M 0.828125 0 L 0.578125 0 L 0.578125 -1.609375 C 0.515625 -1.617188 0.453125 -1.625 0.390625 -1.625 L 0.046875 -1.546875 L 0.03125 -1.734375 L 1.375 -1.734375 L 1.359375 -1.546875 L 1.015625 -1.625 C 0.953125 -1.625 0.890625 -1.617188 0.828125 -1.609375 Z M 0.828125 0 "/></g></g></g><g fill="#000000" fill-opacity="1"><g transform="translate(25.122075, 23.00473)"><g><path d="M 0.484375 -0.859375 L 0.484375 0 L 0.234375 0 L 0.234375 -1.734375 L 0.484375 -1.734375 L 0.484375 -0.953125 L 1.28125 -0.953125 L 1.28125 -1.734375 L 1.546875 -1.734375 L 1.546875 0 L 1.28125 0 L 1.28125 -0.859375 Z M 0.484375 -0.859375 "/></g></g></g><g fill="#000000" fill-opacity="1"><g transform="translate(27.211911, 23.00473)"><g><path d="M 0.234375 0 L 0.234375 -1.734375 L 1.28125 -1.734375 L 1.265625 -1.5625 L 0.78125 -1.640625 C 0.6875 -1.640625 0.585938 -1.625 0.484375 -1.59375 L 0.484375 -0.953125 L 1.078125 -0.953125 L 1.078125 -0.859375 L 0.484375 -0.859375 L 0.484375 -0.09375 L 1.296875 -0.171875 L 1.28125 0 Z M 0.234375 0 "/></g></g></g><g fill="#000000" fill-opacity="1"><g transform="translate(29.970389, 23.00473)"><g><path d="M 0.234375 0 L 0.234375 -1.734375 L 0.734375 -1.734375 C 0.929688 -1.734375 1.085938 -1.695312 1.203125 -1.625 C 1.328125 -1.5625 1.390625 -1.460938 1.390625 -1.328125 C 1.390625 -1.234375 1.351562 -1.148438 1.28125 -1.078125 C 1.21875 -1.003906 1.128906 -0.953125 1.015625 -0.921875 C 1.171875 -0.890625 1.285156 -0.832031 1.359375 -0.75 C 1.441406 -0.675781 1.484375 -0.59375 1.484375 -0.5 C 1.484375 -0.40625 1.457031 -0.320312 1.40625 -0.25 C 1.363281 -0.1875 1.304688 -0.140625 1.234375 -0.109375 C 1.085938 -0.0351562 0.9375 0 0.78125 0 Z M 0.484375 -0.9375 L 0.6875 -0.9375 C 0.84375 -0.9375 0.953125 -0.972656 1.015625 -1.046875 C 1.085938 -1.117188 1.125 -1.207031 1.125 -1.3125 C 1.125 -1.382812 1.097656 -1.445312 1.046875 -1.5 C 1.003906 -1.5625 0.929688 -1.609375 0.828125 -1.640625 C 0.710938 -1.640625 0.597656 -1.625 0.484375 -1.59375 Z M 0.484375 -0.859375 L 0.484375 -0.125 C 0.546875 -0.101562 0.632812 -0.09375 0.75 -0.09375 C 0.863281 -0.09375 0.96875 -0.125 1.0625 -0.1875 C 1.15625 -0.25 1.203125 -0.335938 1.203125 -0.453125 C 1.203125 -0.566406 1.148438 -0.660156 1.046875 -0.734375 C 0.953125 -0.816406 0.832031 -0.859375 0.6875 -0.859375 Z M 0.484375 -0.859375 "/></g></g></g><g fill="#000000" fill-opacity="1"><g transform="translate(31.973696, 23.00473)"><g><path d="M 0.234375 0 L 0.234375 -1.734375 L 0.5 -1.734375 L 0.5 -0.140625 C 0.601562 -0.109375 0.6875 -0.09375 0.75 -0.09375 L 1.21875 -0.171875 L 1.1875 0 Z M 0.234375 0 "/></g></g></g><g fill="#000000" fill-opacity="1"><g transform="translate(33.565328, 23.00473)"><g><path d="M 0.484375 -1.734375 L 0.484375 0 L 0.234375 0 L 0.234375 -1.734375 Z M 0.484375 -1.734375 "/></g></g></g><g fill="#000000" fill-opacity="1"><g transform="translate(34.593202, 23.00473)"><g><path d="M 0.421875 -1.4375 C 0.421875 -1.363281 0.453125 -1.289062 0.515625 -1.21875 C 0.578125 -1.15625 0.648438 -1.097656 0.734375 -1.046875 C 0.816406 -0.992188 0.898438 -0.941406 0.984375 -0.890625 C 1.078125 -0.835938 1.148438 -0.773438 1.203125 -0.703125 C 1.265625 -0.628906 1.296875 -0.546875 1.296875 -0.453125 C 1.296875 -0.304688 1.242188 -0.1875 1.140625 -0.09375 C 1.035156 -0.0078125 0.894531 0.03125 0.71875 0.03125 C 0.539062 0.03125 0.363281 -0.00390625 0.1875 -0.078125 L 0.1875 -0.1875 C 0.363281 -0.101562 0.515625 -0.0625 0.640625 -0.0625 C 0.765625 -0.0625 0.859375 -0.09375 0.921875 -0.15625 C 0.992188 -0.21875 1.03125 -0.300781 1.03125 -0.40625 C 1.03125 -0.476562 1 -0.546875 0.9375 -0.609375 C 0.882812 -0.671875 0.816406 -0.722656 0.734375 -0.765625 C 0.648438 -0.804688 0.566406 -0.847656 0.484375 -0.890625 C 0.410156 -0.941406 0.34375 -1.003906 0.28125 -1.078125 C 0.21875 -1.148438 0.1875 -1.238281 0.1875 -1.34375 C 0.1875 -1.445312 0.234375 -1.539062 0.328125 -1.625 C 0.421875 -1.71875 0.5625 -1.765625 0.75 -1.765625 C 0.863281 -1.765625 1.007812 -1.738281 1.1875 -1.6875 L 1.171875 -1.515625 C 0.929688 -1.609375 0.726562 -1.65625 0.5625 -1.65625 C 0.46875 -1.613281 0.421875 -1.539062 0.421875 -1.4375 Z M 0.421875 -1.4375 "/></g></g></g><g fill="#000000" fill-opacity="1"><g transform="translate(36.36576, 23.00473)"><g><path d="M 0.421875 -1.4375 C 0.421875 -1.363281 0.453125 -1.289062 0.515625 -1.21875 C 0.578125 -1.15625 0.648438 -1.097656 0.734375 -1.046875 C 0.816406 -0.992188 0.898438 -0.941406 0.984375 -0.890625 C 1.078125 -0.835938 1.148438 -0.773438 1.203125 -0.703125 C 1.265625 -0.628906 1.296875 -0.546875 1.296875 -0.453125 C 1.296875 -0.304688 1.242188 -0.1875 1.140625 -0.09375 C 1.035156 -0.0078125 0.894531 0.03125 0.71875 0.03125 C 0.539062 0.03125 0.363281 -0.00390625 0.1875 -0.078125 L 0.1875 -0.1875 C 0.363281 -0.101562 0.515625 -0.0625 0.640625 -0.0625 C 0.765625 -0.0625 0.859375 -0.09375 0.921875 -0.15625 C 0.992188 -0.21875 1.03125 -0.300781 1.03125 -0.40625 C 1.03125 -0.476562 1 -0.546875 0.9375 -0.609375 C 0.882812 -0.671875 0.816406 -0.722656 0.734375 -0.765625 C 0.648438 -0.804688 0.566406 -0.847656 0.484375 -0.890625 C 0.410156 -0.941406 0.34375 -1.003906 0.28125 -1.078125 C 0.21875 -1.148438 0.1875 -1.238281 0.1875 -1.34375 C 0.1875 -1.445312 0.234375 -1.539062 0.328125 -1.625 C 0.421875 -1.71875 0.5625 -1.765625 0.75 -1.765625 C 0.863281 -1.765625 1.007812 -1.738281 1.1875 -1.6875 L 1.171875 -1.515625 C 0.929688 -1.609375 0.726562 -1.65625 0.5625 -1.65625 C 0.46875 -1.613281 0.421875 -1.539062 0.421875 -1.4375 Z M 0.421875 -1.4375 "/></g></g></g></svg>