<svg xmlns="http://www.w3.org/2000/svg"  viewBox="0 0 100 100" width="100px" height="100px"><path fill="#fdbc01" d="m77.13,24.59c-1.69-1.76-17.92-2.18-17.92-2.18l-42.97,42.97c-.57.57,17.81,18.95,18.38,18.38l42.97-42.97s.71-14.98-.46-16.21Z"/><path fill="#fd86ae" d="m85.99,22.76c-2.54-3.27-5.48-6.22-8.75-8.75-3.11-2.41-7.54-2.09-10.33.69l-7.71,7.71,18.38,18.38,7.71-7.71c2.78-2.78,3.1-7.22.69-10.33Z"/><path fill="#c9dcf4" d="m19.74,87.26l12.79-2.4c.76-.14,1.46-.51,2.02-1.04-5.03-7.68-10.69-13.34-18.38-18.37-.53.56-.9,1.26-1.04,2.02l-2.4,12.79,7,7Z"/><path fill="#4a254b" d="m17.27,82.73c-1.29-1.29-2.87-2.11-4.53-2.47l-.26,1.37c-.65,3.49,2.4,6.54,5.89,5.89l1.37-.26c-.36-1.66-1.18-3.24-2.47-4.53Z"/><path fill="#4a254b" d="m77.87,41.57c-.13,0-.26-.05-.35-.15l-6.97-6.97c-.2-.2-.2-.51,0-.71s.51-.2.71,0l6.97,6.97c.2.2.2.51,0,.71-.1.1-.23.15-.35.15Z"/><path fill="#4a254b" d="m30.49,78.72c-.15,0-.29-.06-.39-.19-3.98-4.91-8.49-8.94-14.19-12.67-.23-.15-.29-.46-.14-.69.15-.23.46-.29.69-.14,5.79,3.79,10.37,7.89,14.42,12.88.17.21.14.53-.07.7-.09.07-.2.11-.31.11Z"/><path fill="#4a254b" d="m54.26,55.65c1.45-1.45,1.55-3.74.31-5.31-.15-.19-.43-.22-.61-.05-.98.98-4.08,4.08-5.06,5.06-.17.17-.15.45.05.61,1.57,1.25,3.86,1.14,5.31-.31Z"/><circle cx="41.17" cy="55.29" r="4.5" fill="#fff"/><circle cx="41.17" cy="55.29" r="1.93" fill="#4a254b"/><circle cx="53.9" cy="42.56" r="4.5" fill="#fff"/><circle cx="53.9" cy="42.56" r="1.93" fill="#4a254b"/></svg>